<?xml version="1.0" encoding="UTF-8" standalone="no"?>
<!DOCTYPE svg PUBLIC "-//W3C//DTD SVG 1.1//EN" "http://www.w3.org/Graphics/SVG/1.1/DTD/svg11.dtd">
<svg width="100%" height="100%" viewBox="0 0 32 32" version="1.1" xmlns="http://www.w3.org/2000/svg" xmlns:xlink="http://www.w3.org/1999/xlink" xml:space="preserve" xmlns:serif="http://www.serif.com/" style="fill-rule:evenodd;clip-rule:evenodd;stroke-linejoin:round;stroke-miterlimit:2;">
    <g transform="matrix(0.222225,0,0,0.222225,0.266664,12.3466)">
        <path d="M0.96,32L0.96,2.8L8.4,2.8L8.4,32L0.96,32ZM7.6,32L7.6,25.52L19.44,25.52L19.44,32L7.6,32ZM24.521,32L24.521,9.92L31.801,9.92L31.801,32L24.521,32ZM21.721,15.2L21.721,9.92L31.801,9.92L31.801,15.2L21.721,15.2ZM27.521,8.16C26.188,8.16 25.201,7.827 24.561,7.16C23.948,6.467 23.641,5.587 23.641,4.52C23.641,3.453 23.948,2.587 24.561,1.92C25.201,1.227 26.174,0.88 27.481,0.88C28.814,0.88 29.788,1.227 30.401,1.92C31.014,2.587 31.321,3.453 31.321,4.52C31.321,5.587 31.014,6.467 30.401,7.16C29.788,7.827 28.828,8.16 27.521,8.16ZM37.533,32L37.533,9.92L43.293,9.92L43.293,19.4L42.973,19.4C42.973,17.107 43.266,15.213 43.853,13.72C44.44,12.2 45.306,11.067 46.453,10.32C47.626,9.573 49.039,9.2 50.693,9.2L51.013,9.2C53.52,9.2 55.453,10.04 56.813,11.72C58.2,13.373 58.893,15.92 58.893,19.36L58.893,32L51.613,32L51.613,19.16C51.613,18.147 51.306,17.32 50.693,16.68C50.106,16.013 49.293,15.68 48.253,15.68C47.213,15.68 46.373,16.013 45.733,16.68C45.12,17.32 44.813,18.173 44.813,19.24L44.813,32L37.533,32ZM79.843,32L73.323,21.68L70.363,21.68L79.003,9.92L86.603,9.92L78.403,21L78.403,17.48L87.963,32L79.843,32ZM64.163,32L64.163,2.8L71.443,2.8L71.443,32L64.163,32ZM90.508,32L90.508,25.6C90.508,24.32 90.722,23.2 91.148,22.24C91.602,21.253 92.295,20.387 93.228,19.64C94.188,18.893 95.428,18.2 96.948,17.56L101.388,15.68C102.535,15.2 103.361,14.627 103.868,13.96C104.401,13.293 104.668,12.453 104.668,11.44C104.668,10.507 104.348,9.72 103.708,9.08C103.095,8.413 102.188,8.08 100.988,8.08C99.762,8.08 98.842,8.427 98.228,9.12C97.615,9.787 97.308,10.693 97.308,11.84L90.108,11.84C90.108,9.92 90.522,8.213 91.348,6.72C92.175,5.227 93.388,4.053 94.988,3.2C96.615,2.347 98.615,1.92 100.988,1.92C103.335,1.92 105.308,2.333 106.908,3.16C108.535,3.96 109.761,5.067 110.588,6.48C111.441,7.867 111.868,9.44 111.868,11.2L111.868,11.68C111.868,13.947 111.255,15.813 110.028,17.28C108.801,18.747 106.828,20.067 104.108,21.24L99.668,23.12C99.028,23.387 98.548,23.68 98.228,24C97.935,24.32 97.788,24.747 97.788,25.28L97.788,26.72L96.068,25.6L111.788,25.6L111.788,32L90.508,32ZM115.278,26.84L115.278,19.28L125.998,1.92L131.878,5.64L123.038,20.04L123.638,20.92L140.638,20.92L140.638,26.84L115.278,26.84ZM130.598,32L130.598,10.84L137.478,10.84L137.478,32L130.598,32Z" style="fill:rgb(13,110,253);fill-rule:nonzero;"/>
    </g>
</svg>
